# xmcd CD database file
#
# Track frame offsets:
#	150
#	14280
#	31773
#	52607
#	67806
#	84987
#	102660
#	117322
#	139287
#	153996
#	173006
#
# Disc length: 2608 seconds
#
# Revision: 3
# Processed by: cddbd v1.5.2PL0 Copyright (c) Steve Scherf et al.
# Submitted via: CDex 1.77
#
DISCID=7e0a2e0b
DTITLE=Jimmy Buffett - Encores, Disc 2
DYEAR=2010
DGENRE=Country Coastal
TTITLE0=L'air De La Louisiane
TTITLE1=Reggaebilly Hill
TTITLE2=Coast 0f Marseilles (feat. Peter Mayer, Tina Gullickson, and Nadirah Shakoor)
TTITLE3=Lovely Cruise
TTITLE4=Oysters And Pearls
TTITLE5=Wildflowers (feat. Peter Mayer and Mac McAnally)
TTITLE6=Defying Gravity
TTITLE7=It's A Big Old Goofy World
TTITLE8=Death Of An Unpopular Poet
TTITLE9=Blowin In The Wind
TTITLE10=A Pirate Looks At Forty (feat. Jake Shimabukuro)
EXTD=YEAR: 2010
EXTT0=
EXTT1=
EXTT2=
EXTT3=
EXTT4=
EXTT5=
EXTT6=
EXTT7=
EXTT8=
EXTT9=
EXTT10=
PLAYORDER=
